# xmcd CD database file
#
# Track frame offsets:
#	150
#	5402
#	25039
#	43780
#	66181
#	73898
#	94596
#	111676
#	128852
#	148449
#	151452
#	173338
#	191544
#	208873
#	227023
#
# Disc length: 3635 seconds
#
# Revision: 0
# Processed by: cddbd v1.4b41PL1 Copyright (c) Steve Scherf et al.
# Submitted via: Feurio! 1.61 - http://www.feurio.com
#
DISCID=d90e310f
DTITLE=Next - Welcome II nextasy
DYEAR=1900
DGENRE=
TTITLE0=Welcome II nextasy (intro)
TTITLE1=What you want ft.Beanie Sigel
TTITLE2=Wifey 
TTITLE3=Cybersex
TTITLE4=Beauty queen
TTITLE5=When we kiss
TTITLE6=Jerk ft.50 Cent
TTITLE7=Call on me 
TTITLE8=Shorty
TTITLE9=Minnesnowta (interlude)
TTITLE10=Let's make a movie
TTITLE11=My everything
TTITLE12=Splash
TTITLE13=Banned from tv
TTITLE14=Oh no no ft.Red Rat and Renee Neutville
EXTD=
EXTT0=
EXTT1=
EXTT2=
EXTT3=
EXTT4=
EXTT5=
EXTT6=
EXTT7=
EXTT8=
EXTT9=
EXTT10=
EXTT11=
EXTT12=
EXTT13=
EXTT14=
PLAYORDER=
